<svg width="20" height="20" viewBox="0 0 20 20" fill="none" xmlns="http://www.w3.org/2000/svg">
    <path
        d="M16.875 9.37491H4.40656L9.18094 4.82741C9.43094 4.58928 9.44063 4.19366 9.2025 3.94366C8.96469 3.69397 8.56906 3.68397 8.31875 3.9221L2.86625 9.11585C2.63031 9.3521 2.5 9.66585 2.5 9.99991C2.5 10.3337 2.63031 10.6477 2.87719 10.8943L8.31906 16.0774C8.44 16.1927 8.595 16.2499 8.75 16.2499C8.915 16.2499 9.08 16.1849 9.20281 16.0558C9.44094 15.8058 9.43125 15.4105 9.18125 15.1724L4.38688 10.6249H16.875C17.22 10.6249 17.5 10.3449 17.5 9.99991C17.5 9.65491 17.22 9.37491 16.875 9.37491Z"
        fill="white" />
</svg>
