<svg width="68" height="68" viewBox="0 0 68 68" fill="none" xmlns="http://www.w3.org/2000/svg">
<path d="M61.638 33.6789C62.134 40.905 59.7444 48.0329 54.9931 53.4998C50.2418 58.9668 43.5166 62.3265 36.2919 62.8425C29.0673 63.3585 21.9328 60.9887 16.4528 56.2525C10.9728 51.5163 7.59442 44.8003 7.05846 37.5771C6.52251 30.3539 8.87269 23.213 13.5937 17.7199C18.3147 12.2268 25.0214 8.83002 32.2431 8.27412C39.4647 7.71822 46.6122 10.0486 52.1183 14.7545C57.6244 19.4603 61.0398 26.1575 61.6156 33.3776" fill="#666666"/>
<path d="M59.5179 33.8246C59.9754 40.4894 57.7715 47.0638 53.3892 52.1061C49.007 57.1484 42.8041 60.2472 36.1406 60.7231C29.477 61.1991 22.8967 59.0132 17.8423 54.6449C12.7879 50.2766 9.67196 44.0823 9.17763 37.4201C8.6833 30.7579 10.851 24.1716 15.2053 19.1051C19.5596 14.0387 25.7453 10.9056 32.4061 10.3928C39.0669 9.88013 45.6592 12.0296 50.7376 16.37C55.8161 20.7103 58.9662 26.8873 59.4973 33.5467" fill="#333333"/>
<path d="M56.073 34.0612C56.4679 39.814 54.5655 45.4887 50.7829 49.841C47.0003 54.1933 41.6462 56.8681 35.8946 57.2789C30.1429 57.6897 24.463 55.8029 20.1003 52.0324C15.7375 48.2618 13.048 42.9152 12.6213 37.1647C12.1946 31.4141 14.0656 25.7292 17.8241 21.3561C21.5826 16.9829 26.9218 14.2786 32.6711 13.836C38.4205 13.3935 44.1107 15.2487 48.4942 18.9951C52.8777 22.7415 55.5968 28.0732 56.0552 33.8213" fill="#1A1A1A"/>
<path d="M56.073 34.0612C56.4679 39.814 54.5655 45.4887 50.7829 49.841C47.0003 54.1933 41.6463 56.8681 35.8946 57.2789C30.1429 57.6897 24.463 55.8029 20.1003 52.0324C15.7375 48.2618 13.048 42.9152 12.6213 37.1647C12.1946 31.4141 14.0656 25.7292 17.8241 21.3561C21.5826 16.9829 26.9218 14.2786 32.6711 13.836C38.4205 13.3935 44.1107 15.2487 48.4942 18.9951C52.8777 22.7415 55.5968 28.0732 56.0552 33.8213" stroke="white" stroke-width="0.751181" stroke-linecap="round" stroke-linejoin="round"/>
<path d="M50.7729 34.425C51.0715 38.7747 49.6331 43.0654 46.7731 46.3561C43.9131 49.6469 39.8649 51.6693 35.5161 51.9799C31.1672 52.2905 26.8727 50.8639 23.574 48.013C20.2754 45.1621 18.2418 41.1195 17.9192 36.7716C17.5966 32.4236 19.0113 28.1251 21.8531 24.8186C24.6949 21.5121 28.7318 19.4675 33.0789 19.1328C37.4259 18.7982 41.7282 20.201 45.0426 23.0336C48.3569 25.8663 50.4128 29.8976 50.7594 34.2437" fill="black"/>
<path d="M40.4998 26.3761C40.5549 27.1779 40.2897 27.9687 39.7625 28.5753C39.2354 29.1819 38.4892 29.5548 37.6876 29.6121C36.8859 29.6693 36.0943 29.4063 35.4862 28.8808C34.8782 28.3552 34.5033 27.61 34.4439 26.8086C34.3844 26.0071 34.6452 25.2148 35.169 24.6053C35.6929 23.9958 36.437 23.619 37.2383 23.5573C38.0396 23.4956 38.8326 23.7542 39.4436 24.2764C40.0545 24.7985 40.4334 25.5415 40.4974 26.3426" fill="white"/>
<path d="M47.0733 34.5631C47.1043 35.0141 46.9551 35.4589 46.6586 35.8001C46.362 36.1413 45.9423 36.3511 45.4913 36.3833C45.0404 36.4155 44.5951 36.2676 44.2531 35.972C43.9111 35.6764 43.7002 35.2572 43.6668 34.8064C43.6333 34.3555 43.78 33.9098 44.0747 33.5669C44.3694 33.2241 44.7879 33.0121 45.2387 32.9775C45.6894 32.9428 46.1355 33.0882 46.4791 33.3819C46.8228 33.6756 47.036 34.0936 47.0719 34.5443" fill="white"/>
</svg>
