<svg width="25" height="24" viewBox="0 0 25 24" fill="none" xmlns="http://www.w3.org/2000/svg">
<path d="M10.2656 18C9.02513 18 8.01562 19.0095 8.01562 20.25C8.01562 21.4905 9.02513 22.5 10.2656 22.5C11.5061 22.5 12.5156 21.4905 12.5156 20.25C12.5156 19.0095 11.5061 18 10.2656 18ZM10.2656 21C9.85162 21 9.51562 20.6632 9.51562 20.25C9.51562 19.8368 9.85162 19.5 10.2656 19.5C10.6796 19.5 11.0156 19.8368 11.0156 20.25C11.0156 20.6632 10.6796 21 10.2656 21ZM17.7656 18C16.5251 18 15.5156 19.0095 15.5156 20.25C15.5156 21.4905 16.5251 22.5 17.7656 22.5C19.0061 22.5 20.0156 21.4905 20.0156 20.25C20.0156 19.0095 19.0061 18 17.7656 18ZM17.7656 21C17.3516 21 17.0156 20.6632 17.0156 20.25C17.0156 19.8368 17.3516 19.5 17.7656 19.5C18.1796 19.5 18.5156 19.8368 18.5156 20.25C18.5156 20.6632 18.1796 21 17.7656 21ZM22.7951 6.1635C22.3661 5.583 21.7061 5.25 20.9846 5.25H6.64013L5.89087 2.5935C5.71012 1.94925 5.11612 1.5 4.44637 1.5H2.76563C2.35088 1.5 2.01562 1.836 2.01562 2.25C2.01562 2.664 2.35088 3 2.76563 3H4.44712L5.34787 6.195L6.92062 13.0118C7.39463 15.0653 9.19763 16.5 11.3059 16.5H17.2459C19.2334 16.5 20.9629 15.2235 21.5471 13.323L23.1349 8.16225C23.3471 7.473 23.2234 6.744 22.7951 6.1635ZM21.7009 7.7205L20.1131 12.882C19.7231 14.1488 18.5711 15 17.2459 15H11.3059C9.90037 15 8.69812 14.0437 8.38312 12.675L7.01587 6.75H20.9846C21.2254 6.75 21.4451 6.861 21.5884 7.0545C21.7309 7.248 21.7721 7.49025 21.7009 7.7205Z" fill="#484C52"/>
</svg>
