<svg width="25" height="24" viewBox="0 0 25 24" fill="none" xmlns="http://www.w3.org/2000/svg">
<g clip-path="url(#clip0_101_2676)">
<path d="M19.716 19H10.722C9.425 19 8.275 18.149 7.924 16.93L4.884 6.629C4.776 6.256 4.417 6 4.007 6H1.625C1.072 6 0.625 5.552 0.625 5C0.625 4.448 1.072 4 1.625 4H4.007C5.304 4 6.453 4.851 6.804 6.07L7.373 8H22.668C23.292 8 23.884 8.297 24.251 8.795C24.615 9.289 24.72 9.907 24.539 10.491L22.476 17.039C22.072 18.221 20.965 19 19.716 19Z" fill="#3C67E3"/>
<path d="M11.625 24C10.522 24 9.625 23.103 9.625 22C9.625 20.897 10.522 20 11.625 20C12.728 20 13.625 20.897 13.625 22C13.625 23.103 12.728 24 11.625 24Z" fill="#3C67E3"/>
<path d="M18.625 24C17.522 24 16.625 23.103 16.625 22C16.625 20.897 17.522 20 18.625 20C19.728 20 20.625 20.897 20.625 22C20.625 23.103 19.728 24 18.625 24Z" fill="#3C67E3"/>
</g>
<defs>
<clipPath id="clip0_101_2676">
<rect width="24" height="24" fill="white" transform="translate(0.625)"/>
</clipPath>
</defs>
</svg>
