<svg xmlns="http://www.w3.org/2000/svg" version="1.1" xmlns:xlink="http://www.w3.org/1999/xlink"
    width="24" height="24" x="0" y="0" viewBox="0 0 32 32"
    style="enable-background:new 0 0 24 24" xml:space="preserve" class=""><g><circle cx="13.575" cy="21.406" r="1.046" fill="#4C9E48" opacity="1"  class=""></circle><circle
    cx="19.251" cy="21.406" r="1.046" fill="#4C9E48" opacity="1"
    class=""></circle><path
    d="M20.695 12.467H11.83l-.146-.501a1.61 1.61 0 0 0-1.039-1.079l-.979-.326a.9.9 0 0 0-.568 1.708l.886.294.302 1.036.011.039 1.37 4.71c.2.684.836 1.161 1.548 1.161h6.147c.686 0 1.298-.435 1.522-1.081l1.333-3.819a1.612 1.612 0 0 0-1.522-2.142zm-1.466 5.242h-5.875l-1.001-3.443h8.078z"
    fill="#4C9E48" opacity="1"  class=""></path><path
    d="M26.079 5.026C22.758 1.974 18.266.605 13.751 1.265c-6.485.951-11.63 6.161-12.511 12.67-.583 4.309.693 8.574 3.51 11.817l-1.864 2.796a1.514 1.514 0 0 0-.076 1.555c.264.492.774.797 1.332.797h11.406c8.114 0 14.845-6.134 15.324-13.964a14.88 14.88 0 0 0-4.793-11.91zm2.995 11.8C28.653 23.708 22.712 29.1 15.547 29.1H4.682l1.957-2.935a.9.9 0 0 0-.099-1.121c-2.776-2.902-4.058-6.864-3.516-10.868.774-5.718 5.292-10.295 10.988-11.13 3.972-.584 7.928.622 10.849 3.305a13.08 13.08 0 0 1 4.213 10.475z"
    fill="#4C9E48" opacity="1"  class=""></path></g></svg>