<svg width="62" height="62" viewBox="0 0 62 62" fill="none" xmlns="http://www.w3.org/2000/svg">
<path d="M40.2484 0.399902C46.3684 0.399902 49.4964 0.399902 52.7604 1.4199C56.3644 2.7119 59.2204 5.5679 60.5124 9.1719C61.6004 12.5039 61.6004 15.5639 61.6004 21.7519V40.2479C61.6004 46.3679 61.6004 49.4959 60.5804 52.7599C59.2884 56.3639 56.4324 59.2199 52.8284 60.5119C49.4964 61.5999 46.4364 61.5999 40.2484 61.5999H21.7524C15.6324 61.5999 12.5044 61.5999 9.24039 60.5799C5.63639 59.2199 2.78039 56.3639 1.42039 52.7599C0.400391 49.4959 0.400391 46.4359 0.400391 40.2479V21.7519C0.400391 15.6319 0.400391 12.5039 1.42039 9.2399C2.78039 5.6359 5.63639 2.7799 9.24039 1.4199C12.5044 0.399902 15.5644 0.399902 21.7524 0.399902H40.2484Z" fill="white"/>
<path d="M21.3445 22.84C21.9565 22.84 22.5005 22.908 23.0445 23.044C22.9085 22.5 22.8405 21.888 22.8405 21.344V12.64C22.8405 12.232 22.9085 11.892 22.9085 11.552C19.7125 9.17197 15.1565 9.44397 12.3005 12.3C9.44446 15.156 9.17246 19.712 11.5525 22.908C11.8925 22.84 12.3005 22.84 12.6405 22.84H21.3445Z" fill="#FF7E7B"/>
<path d="M30.4568 29.4358C30.0488 29.4358 29.7088 29.3678 29.3008 29.2998C29.3688 29.6398 29.4368 30.0478 29.4368 30.4558C29.6408 30.3198 29.7768 30.1838 29.9808 29.9798C30.1168 29.7758 30.2528 29.6398 30.4568 29.4358Z" fill="#FF6F3F"/>
<path d="M29.9802 18.42C30.3882 18.828 30.7962 19.304 31.0682 19.78C31.4082 19.304 31.7482 18.828 32.1562 18.42L38.2762 12.3C38.5482 12.028 38.7522 11.824 39.0242 11.62C38.6162 7.60798 35.1482 4.47998 31.0002 4.47998C26.8522 4.47998 23.4522 7.53998 22.9082 11.552C23.2482 11.756 23.5202 12.028 23.7922 12.3L29.9802 18.42Z" fill="#FFAC00"/>
<path d="M31.6801 29.436C31.4761 29.164 31.2041 28.892 31.0681 28.552C30.8641 28.824 30.6601 29.164 30.4561 29.436H31.0001C31.2041 29.504 31.4761 29.436 31.6801 29.436Z" fill="#FFC300"/>
<path d="M22.8408 21.344C22.8408 21.956 22.9088 22.5 23.0448 23.044C26.1728 23.724 28.6208 26.172 29.3008 29.3C29.6408 29.368 30.0488 29.436 30.4568 29.436C30.6608 29.164 30.9328 28.892 31.0688 28.552C29.3688 25.9 29.3688 22.432 31.0688 19.78C30.7288 19.304 30.3888 18.828 29.9808 18.42L23.8608 12.3C23.5888 12.028 23.2488 11.756 22.9768 11.552C22.9088 11.892 22.8408 12.232 22.8408 12.64V21.344Z" fill="#FF3400"/>
<path d="M39.1601 21.3438C39.1601 21.9558 39.0921 22.4998 38.9561 23.0438C39.5001 22.9078 40.1121 22.8398 40.6561 22.8398H49.3601C49.7681 22.8398 50.1761 22.9078 50.5841 22.9758C52.9641 19.7798 52.76 15.2238 49.8361 12.2998C46.9121 9.37578 42.2881 9.17178 39.0921 11.6198C39.1601 11.9598 39.1601 12.2998 39.1601 12.6398V21.3438Z" fill="#F0EA0D"/>
<path d="M32.5647 30.3198C32.5647 29.9798 32.6327 29.6398 32.7007 29.2998C32.3607 29.3678 32.0207 29.4358 31.6807 29.4358C31.8167 29.6398 32.0207 29.7758 32.1567 29.9798C32.2927 30.1158 32.4287 30.1838 32.5647 30.3198Z" fill="#DAE411"/>
<path d="M32.1564 18.4199C31.7484 18.8279 31.3404 19.3039 31.0684 19.7799C32.7684 22.4319 32.7684 25.8999 31.0684 28.5519C31.2724 28.8239 31.4764 29.1639 31.6804 29.4359C32.0204 29.4359 32.3604 29.3679 32.7004 29.2999C33.3804 26.1719 35.8284 23.7239 38.9564 23.0439C39.0924 22.4999 39.1604 21.8879 39.1604 21.3439V12.6399C39.1604 12.2999 39.1604 11.9599 39.0924 11.6199C38.8204 11.8239 38.5484 12.0279 38.3444 12.2999L32.1564 18.4199Z" fill="#EAA200"/>
<path d="M31.068 19.7798C29.368 22.4318 29.368 25.8998 31.068 28.5518C32.768 25.8998 32.768 22.4998 31.068 19.7798Z" fill="#E63300"/>
<path d="M32.4961 30.9998C32.4961 31.2718 32.4961 31.5438 32.5641 31.8158C32.9041 31.5438 33.2441 31.2718 33.5841 31.0678C33.2441 30.8638 32.9041 30.5918 32.5641 30.3198C32.5641 30.5238 32.4961 30.7958 32.4961 30.9998Z" fill="#83D567"/>
<path d="M57.5195 30.9998C57.5195 26.9198 54.5275 23.5198 50.5835 22.9758C50.3795 23.3158 50.1075 23.5878 49.8355 23.8598L43.7155 29.9798C43.3075 30.3878 42.8315 30.7958 42.3555 31.0678C42.8315 31.4078 43.3075 31.7478 43.7155 32.1558L49.8355 38.2758C50.1075 38.5478 50.3115 38.7518 50.5155 39.0238C54.4595 38.4798 57.5195 35.1478 57.5195 30.9998Z" fill="#A2DD50"/>
<path d="M40.6565 22.8398C40.0445 22.8398 39.5005 22.9078 38.9565 23.0438C38.2765 26.1718 35.8285 28.6198 32.7005 29.2998C32.6325 29.6398 32.5645 29.9798 32.5645 30.3198C32.9045 30.5918 33.2445 30.8638 33.5845 31.0678C36.2365 29.3678 39.7045 29.3678 42.3565 31.0678C42.8325 30.7278 43.3085 30.3878 43.7165 29.9798L49.8365 23.8598C50.1085 23.5878 50.3805 23.2478 50.5845 22.9758C50.1765 22.9078 49.7685 22.8398 49.3605 22.8398H40.6565Z" fill="#8BC100"/>
<path d="M38.9562 23.0439C35.8282 23.7239 33.3802 26.1719 32.7002 29.2999C35.8282 28.6199 38.2762 26.1719 38.9562 23.0439Z" fill="#8D8800"/>
<path d="M40.6561 39.1598C40.0441 39.1598 39.5001 39.0918 38.9561 38.9558C39.0921 39.4998 39.1601 40.1118 39.1601 40.6558V49.3598C39.1601 49.7678 39.0921 50.1078 39.0921 50.5158C42.2881 53.0318 46.9121 52.8278 49.9041 49.8358C52.8281 46.9118 53.1001 42.2878 50.5841 39.0238C50.1081 39.0918 49.7681 39.1598 49.3601 39.1598H40.6561Z" fill="#44C899"/>
<path d="M31.8154 32.5639C32.0874 32.5639 32.4274 32.6319 32.6994 32.6999C32.6314 32.4279 32.5634 32.0879 32.5634 31.8159C32.4274 31.9519 32.2914 32.0199 32.1554 32.1559C32.0194 32.2919 31.9514 32.4279 31.8154 32.5639Z" fill="#4EBFBD"/>
<path d="M43.7165 32.1559C43.3085 31.7479 42.8325 31.3399 42.3565 31.0679C39.7045 32.7679 36.2365 32.7679 33.5845 31.0679C33.2445 31.2719 32.9045 31.5439 32.5645 31.8159C32.5645 32.0879 32.6325 32.4279 32.7005 32.6999C35.8285 33.3799 38.2765 35.8279 38.9565 38.9559C39.5005 39.0919 40.1125 39.1599 40.6565 39.1599H49.3605C49.7685 39.1599 50.1085 39.0919 50.5165 39.0919C50.3125 38.8199 50.1085 38.5479 49.8365 38.3439L43.7165 32.1559Z" fill="#00A33F"/>
<path d="M33.585 31.068C36.237 32.768 39.705 32.768 42.357 31.068C39.637 29.368 36.237 29.368 33.585 31.068Z" fill="#008D08"/>
<path d="M30.3203 32.5638C30.5923 32.9038 30.8643 33.2438 31.0683 33.5838C31.2723 33.2438 31.5443 32.9038 31.8163 32.5638C31.5443 32.5638 31.2723 32.4958 31.0003 32.4958C30.7963 32.4958 30.5243 32.5638 30.3203 32.5638Z" fill="#859ED5"/>
<path d="M32.1556 43.716C31.7476 43.308 31.3396 42.832 31.0676 42.356C30.7276 42.832 30.3876 43.308 29.9796 43.716L23.8596 49.836C23.5876 50.108 23.2476 50.38 22.9756 50.584C23.5196 54.528 26.9196 57.52 30.9996 57.52C35.1476 57.52 38.4796 54.46 39.0916 50.516C38.8196 50.312 38.5476 50.108 38.3436 49.836L32.1556 43.716Z" fill="#6EACDF"/>
<path d="M39.1604 40.656C39.1604 40.044 39.0924 39.5 38.9564 38.956C35.8284 38.276 33.3804 35.828 32.7004 32.7C32.4284 32.632 32.0884 32.564 31.8164 32.564C31.5444 32.904 31.2724 33.244 31.0684 33.584C32.7684 36.236 32.7684 39.704 31.0684 42.356C31.4084 42.832 31.7484 43.308 32.1564 43.716L38.2764 49.836C38.5484 50.108 38.7524 50.312 39.0244 50.516C39.0924 50.108 39.0924 49.768 39.0924 49.36V40.656H39.1604Z" fill="#1D7B97"/>
<path d="M38.9562 38.956C38.2762 35.828 35.8282 33.38 32.7002 32.7C33.3802 35.828 35.8282 38.276 38.9562 38.956Z" fill="#00683A"/>
<path d="M29.4368 31.6799C29.4368 32.0199 29.3688 32.3599 29.3008 32.6999C29.6408 32.6319 29.9808 32.5639 30.3208 32.5639C30.1848 32.4279 30.1168 32.2919 29.9808 32.1559C29.7768 32.0199 29.6408 31.8839 29.4368 31.6799Z" fill="#BE85C1"/>
<path d="M22.8399 40.6558C22.8399 40.0438 22.9079 39.4998 23.0439 38.9558C22.4999 39.0918 21.8879 39.1598 21.3439 39.1598H12.6399C12.2999 39.1598 11.9599 39.1598 11.6199 39.0918C9.1039 42.2878 9.3759 46.9118 12.2999 49.8358C15.2239 52.7598 19.7799 52.9638 22.9759 50.5838C22.9079 50.1758 22.8399 49.7678 22.8399 49.3598V40.6558Z" fill="#AB86C4"/>
<path d="M29.9808 43.716C30.3888 43.308 30.7968 42.832 31.0688 42.356C29.3688 39.704 29.3688 36.236 31.0688 33.584C30.8648 33.244 30.5928 32.904 30.3208 32.564C29.9808 32.564 29.6408 32.632 29.3008 32.7C28.6208 35.828 26.1728 38.276 23.0448 38.956C22.9088 39.5 22.8408 40.112 22.8408 40.656V49.36C22.8408 49.768 22.9088 50.176 22.9768 50.584C23.3168 50.38 23.5888 50.108 23.8608 49.836L29.9808 43.716Z" fill="#5D53A6"/>
<path d="M31.068 42.356C32.768 39.704 32.768 36.236 31.068 33.584C29.368 36.236 29.368 39.636 31.068 42.356Z" fill="#243F76"/>
<path d="M29.4367 30.4558C29.1647 30.6598 28.8927 30.9318 28.5527 31.0678C28.8247 31.2718 29.1647 31.4758 29.4367 31.6798C29.4367 31.4758 29.5047 31.2038 29.5047 30.9998C29.5047 30.7958 29.4367 30.5918 29.4367 30.4558Z" fill="#F1648A"/>
<path d="M18.4205 32.1558C18.8285 31.7478 19.3045 31.3398 19.7805 31.0678C19.3045 30.7278 18.8285 30.3878 18.4205 29.9798L12.3005 23.8598C12.0285 23.5878 11.7565 23.2478 11.5525 22.9758C7.54047 23.4518 4.48047 26.8518 4.48047 30.9998C4.48047 35.1478 7.60847 38.6158 11.6205 39.0918C11.8245 38.8198 12.0285 38.5478 12.3005 38.3438L18.4205 32.1558Z" fill="#E275A8"/>
<path d="M18.4207 29.9798C18.8287 30.3878 19.3047 30.7958 19.7807 31.0678C22.4327 29.3678 25.9007 29.3678 28.5527 31.0678C28.8247 30.8638 29.1647 30.6598 29.4367 30.4558C29.4367 30.0478 29.3687 29.7078 29.3007 29.2998C26.1727 28.6198 23.7247 26.1718 23.0447 23.0438C22.5007 22.9078 21.8887 22.8398 21.3447 22.8398H12.6407C12.2327 22.8398 11.8927 22.9078 11.5527 22.9078C11.7567 23.2478 12.0287 23.5198 12.3007 23.7918L18.4207 29.9798Z" fill="#E40017"/>
<path d="M23.0449 23.0439C23.7249 26.1719 26.1729 28.6199 29.3009 29.2999C28.6209 26.1719 26.1729 23.7239 23.0449 23.0439Z" fill="#E60000"/>
<path d="M21.3441 39.1599C21.9561 39.1599 22.5001 39.0919 23.0441 38.9559C23.7241 35.8279 26.1721 33.3799 29.3001 32.6999C29.3681 32.3599 29.4361 32.0199 29.4361 31.6799C29.1641 31.4759 28.8921 31.2039 28.5521 31.0679C25.9001 32.7679 22.4321 32.7679 19.7801 31.0679C19.3041 31.4079 18.8281 31.7479 18.4201 32.1559L12.3001 38.2759C12.0281 38.5479 11.8241 38.7519 11.6201 39.0239C11.9601 39.1599 12.3001 39.1599 12.6401 39.1599H21.3441Z" fill="#9F3174"/>
<path d="M19.7803 31.068C22.4323 32.768 25.9003 32.768 28.5523 31.068C25.9003 29.368 22.5003 29.368 19.7803 31.068Z" fill="#9F0017"/>
<path d="M23.0449 38.956C26.1729 38.276 28.6209 35.828 29.3009 32.7C26.1729 33.38 23.7249 35.828 23.0449 38.956Z" fill="#561E5D"/>
</svg>
