<svg width="25" height="24" viewBox="0 0 25 24" fill="none" xmlns="http://www.w3.org/2000/svg">
<path d="M20.1652 6.81994L14.4052 2.78994C12.8352 1.68994 10.4252 1.74994 8.91523 2.91994L3.90523 6.82994C2.90523 7.60994 2.11523 9.20994 2.11523 10.4699V17.3699C2.11523 19.9199 4.18523 21.9999 6.73523 21.9999H17.5152C20.0652 21.9999 22.1352 19.9299 22.1352 17.3799V10.5999C22.1352 9.24994 21.2652 7.58994 20.1652 6.81994ZM12.8752 17.9999C12.8752 18.4099 12.5352 18.7499 12.1252 18.7499C11.7152 18.7499 11.3752 18.4099 11.3752 17.9999V14.9999C11.3752 14.5899 11.7152 14.2499 12.1252 14.2499C12.5352 14.2499 12.8752 14.5899 12.8752 14.9999V17.9999Z" fill="#3C67E3"/>
</svg>
