<svg width="16" height="16" viewBox="0 0 16 16" fill="none" xmlns="http://www.w3.org/2000/svg">
<path d="M12.6663 3.33325H11.9997V1.99992C11.9997 1.82311 11.9294 1.65354 11.8044 1.52851C11.6794 1.40349 11.5098 1.33325 11.333 1.33325C11.1562 1.33325 10.9866 1.40349 10.8616 1.52851C10.7366 1.65354 10.6663 1.82311 10.6663 1.99992V3.33325H5.33301V1.99992C5.33301 1.82311 5.26277 1.65354 5.13775 1.52851C5.01272 1.40349 4.84315 1.33325 4.66634 1.33325C4.48953 1.33325 4.31996 1.40349 4.19494 1.52851C4.06991 1.65354 3.99967 1.82311 3.99967 1.99992V3.33325H3.33301C2.80257 3.33325 2.29387 3.54397 1.91879 3.91904C1.54372 4.29411 1.33301 4.80282 1.33301 5.33325V5.99992H14.6663V5.33325C14.6663 4.80282 14.4556 4.29411 14.0806 3.91904C13.7055 3.54397 13.1968 3.33325 12.6663 3.33325Z" fill="#3C67E3"/>
<path d="M1.33301 12.6666C1.33301 13.197 1.54372 13.7057 1.91879 14.0808C2.29387 14.4559 2.80257 14.6666 3.33301 14.6666H12.6663C13.1968 14.6666 13.7055 14.4559 14.0806 14.0808C14.4556 13.7057 14.6663 13.197 14.6663 12.6666V7.33325H1.33301V12.6666Z" fill="#3C67E3"/>
</svg>
