<svg width="20" height="20" viewBox="0 0 20 20" fill="none" xmlns="http://www.w3.org/2000/svg">
<path d="M12.0803 4.26397L13.2537 3.12022C13.3373 3.03883 13.3964 2.93567 13.4244 2.82241C13.4524 2.70915 13.4481 2.59032 13.4121 2.47936C13.376 2.3684 13.3096 2.26974 13.2204 2.19455C13.1312 2.11936 13.0228 2.07065 12.9073 2.05391L11.2853 1.81835L10.5602 0.348535C10.5027 0.25107 10.4207 0.170298 10.3224 0.114187C10.2241 0.0580756 10.1128 0.0285645 9.99961 0.0285645C9.88641 0.0285645 9.77517 0.0580756 9.67686 0.114187C9.57854 0.170298 9.49656 0.25107 9.43899 0.348535L8.71399 1.81828L7.09199 2.05385C6.97653 2.07058 6.86805 2.1193 6.77885 2.19449C6.68964 2.26968 6.62326 2.36833 6.58722 2.47929C6.55117 2.59025 6.54691 2.70909 6.5749 2.82235C6.60289 2.9356 6.66203 3.03877 6.74561 3.12016L7.91899 4.26391L7.64186 5.87947C7.62212 5.99444 7.63495 6.11263 7.67889 6.22069C7.72284 6.32874 7.79614 6.42234 7.89052 6.49089C7.98489 6.55945 8.09657 6.60023 8.21292 6.60861C8.32926 6.617 8.44563 6.59266 8.54886 6.53835L9.99961 5.77547L11.4504 6.53841C11.5537 6.59272 11.67 6.61706 11.7864 6.60868C11.9027 6.60029 12.0144 6.55951 12.1088 6.49096C12.2031 6.4224 12.2764 6.3288 12.3204 6.22075C12.3643 6.11269 12.3772 5.9945 12.3574 5.87953L12.0803 4.26397Z" fill="#3C67E3"/>
<path d="M19.9694 4.32692C19.9333 4.21598 19.8669 4.11735 19.7777 4.04216C19.6886 3.96698 19.5801 3.91825 19.4647 3.90148L17.8429 3.66585L17.1172 2.19617C17.0597 2.09865 16.9778 2.01782 16.8795 1.96167C16.7812 1.90551 16.67 1.87598 16.5568 1.87598C16.4435 1.87598 16.3323 1.90551 16.234 1.96167C16.1357 2.01782 16.0538 2.09865 15.9963 2.19617L15.2713 3.66585L13.6496 3.90148C13.5342 3.91821 13.4257 3.9669 13.3365 4.04205C13.2474 4.1172 13.181 4.2158 13.1449 4.32672C13.1088 4.43763 13.1045 4.55642 13.1324 4.66965C13.1604 4.78289 13.2194 4.88605 13.3029 4.96748L14.4766 6.11123L14.1995 7.72685C14.1797 7.8418 14.1925 7.95998 14.2364 8.06804C14.2803 8.1761 14.3536 8.26971 14.4479 8.33829C14.5422 8.40688 14.6539 8.4477 14.7702 8.45614C14.8865 8.46458 15.0029 8.44029 15.1062 8.38604L16.5567 7.62354L18.0075 8.38604C18.1107 8.44035 18.2271 8.46469 18.3434 8.45631C18.4598 8.44792 18.5714 8.40714 18.6658 8.33859C18.7602 8.27003 18.8335 8.17643 18.8774 8.06838C18.9214 7.96033 18.9342 7.84213 18.9145 7.72717L18.6374 6.11154L19.8108 4.96779C19.8945 4.88642 19.9536 4.78326 19.9817 4.67C20.0097 4.55674 20.0054 4.43789 19.9694 4.32692Z" fill="#3C67E3"/>
<path d="M6.35041 3.90138L4.72873 3.66576L4.00373 2.19607C3.95212 2.09149 3.87227 2.00343 3.77323 1.94186C3.67418 1.88029 3.55988 1.84766 3.44326 1.84766C3.32663 1.84766 3.21234 1.88029 3.11329 1.94186C3.01424 2.00343 2.9344 2.09149 2.88279 2.19607L2.15704 3.66576L0.53529 3.90138C0.419842 3.91813 0.311385 3.96685 0.222189 4.04203C0.132994 4.11722 0.0666201 4.21586 0.0305781 4.32681C-0.00546377 4.43776 -0.00973526 4.55658 0.018247 4.66983C0.0462292 4.78308 0.105348 4.88624 0.188915 4.96763L1.36254 6.11145L1.08542 7.72707C1.06568 7.84204 1.0785 7.96023 1.12245 8.06828C1.16639 8.17634 1.2397 8.26994 1.33407 8.33849C1.42845 8.40705 1.54012 8.44783 1.65647 8.45621C1.77281 8.4646 1.88918 8.44026 1.99241 8.38594L3.44323 7.62345L4.89373 8.38594C4.99696 8.44026 5.11333 8.4646 5.22967 8.45621C5.34602 8.44783 5.4577 8.40705 5.55207 8.33849C5.64644 8.26994 5.71975 8.17634 5.76369 8.06828C5.80764 7.96023 5.82047 7.84204 5.80073 7.72707L5.5236 6.11145L6.69729 4.9677C6.78079 4.88627 6.83984 4.78311 6.86776 4.66987C6.89569 4.55663 6.89137 4.43784 6.8553 4.32693C6.81923 4.21602 6.75284 4.11742 6.66365 4.04227C6.57446 3.96712 6.46584 3.91811 6.35041 3.90138Z" fill="#3C67E3"/>
<path d="M16.25 9.375H3.75C3.25289 9.37555 2.77629 9.57327 2.42478 9.92478C2.07327 10.2763 1.87555 10.7529 1.875 11.25V16.25C1.87555 16.7471 2.07327 17.2237 2.42478 17.5752C2.77629 17.9267 3.25289 18.1245 3.75 18.125H7.86619L9.55813 19.8169C9.61614 19.8749 9.68502 19.921 9.76084 19.9524C9.83666 19.9838 9.91793 20 10 20C10.0821 20 10.1633 19.9838 10.2392 19.9524C10.315 19.921 10.3839 19.8749 10.4419 19.8169L12.1338 18.125H16.25C16.7471 18.1245 17.2237 17.9267 17.5752 17.5752C17.9267 17.2237 18.1245 16.7471 18.125 16.25V11.25C18.1245 10.7529 17.9267 10.2763 17.5752 9.92478C17.2237 9.57327 16.7471 9.37555 16.25 9.375ZM15 15.625H5C4.83424 15.625 4.67527 15.5592 4.55806 15.4419C4.44085 15.3247 4.375 15.1658 4.375 15C4.375 14.8342 4.44085 14.6753 4.55806 14.5581C4.67527 14.4408 4.83424 14.375 5 14.375H15C15.1658 14.375 15.3247 14.4408 15.4419 14.5581C15.5592 14.6753 15.625 14.8342 15.625 15C15.625 15.1658 15.5592 15.3247 15.4419 15.4419C15.3247 15.5592 15.1658 15.625 15 15.625ZM15 13.125H5C4.83424 13.125 4.67527 13.0592 4.55806 12.9419C4.44085 12.8247 4.375 12.6658 4.375 12.5C4.375 12.3342 4.44085 12.1753 4.55806 12.0581C4.67527 11.9408 4.83424 11.875 5 11.875H15C15.1658 11.875 15.3247 11.9408 15.4419 12.0581C15.5592 12.1753 15.625 12.3342 15.625 12.5C15.625 12.6658 15.5592 12.8247 15.4419 12.9419C15.3247 13.0592 15.1658 13.125 15 13.125Z" fill="#3C67E3"/>
</svg>
