<svg width="20" height="20" viewBox="0 0 20 20" fill="none" xmlns="http://www.w3.org/2000/svg">
<path d="M17.0833 7.08325H9.58333C9.031 7.08391 8.50148 7.30362 8.11092 7.69418C7.72037 8.08473 7.50066 8.61425 7.5 9.16659V14.1666C7.50066 14.7189 7.72037 15.2484 8.11092 15.639C8.50148 16.0296 9.031 16.2493 9.58333 16.2499H13.7858L15.5996 18.0641C15.687 18.1516 15.7984 18.2111 15.9197 18.2353C16.0409 18.2594 16.1666 18.247 16.2809 18.1997C16.3951 18.1524 16.4928 18.0722 16.5614 17.9694C16.6301 17.8666 16.6667 17.7457 16.6667 17.622V16.2499H17.0833C17.6357 16.2493 18.1652 16.0296 18.5557 15.639C18.9463 15.2484 19.166 14.7189 19.1667 14.1666V9.16659C19.166 8.61425 18.9463 8.08473 18.5557 7.69418C18.1652 7.30362 17.6357 7.08391 17.0833 7.08325ZM15.4167 11.0416H15.1838C15.0874 11.9019 14.6956 12.7022 14.075 13.3058C14.4331 13.4599 14.8185 13.5401 15.2083 13.5416C15.3204 13.541 15.4283 13.5842 15.509 13.6621C15.5896 13.7399 15.6366 13.8462 15.64 13.9583C15.6417 14.0122 15.6325 14.0659 15.6131 14.1163C15.5937 14.1666 15.5643 14.2126 15.5269 14.2514C15.4894 14.2902 15.4445 14.3212 15.3949 14.3424C15.3453 14.3636 15.2919 14.3747 15.2379 14.3749C14.5719 14.3731 13.918 14.1964 13.3417 13.8624C12.7707 14.1978 12.1205 14.3747 11.4583 14.3749C11.3462 14.3755 11.2384 14.3323 11.1577 14.2544C11.0771 14.1766 11.03 14.0703 11.0267 13.9583C11.025 13.9043 11.0341 13.8506 11.0536 13.8002C11.073 13.7499 11.1023 13.7039 11.1398 13.6651C11.1773 13.6263 11.2222 13.5953 11.2718 13.5741C11.3214 13.5529 11.3748 13.5418 11.4288 13.5416C11.8313 13.5421 12.2298 13.4607 12.6 13.3024C12.277 12.9952 12.0123 12.632 11.8188 12.2303C11.7933 12.1807 11.778 12.1264 11.7739 12.0708C11.7698 12.0151 11.7769 11.9592 11.7948 11.9063C11.8127 11.8534 11.841 11.8047 11.8781 11.763C11.9153 11.7213 11.9604 11.6875 12.0108 11.6636C12.0612 11.6397 12.1159 11.6261 12.1717 11.6237C12.2275 11.6214 12.2831 11.6302 12.3354 11.6498C12.3877 11.6693 12.4355 11.6992 12.476 11.7376C12.5165 11.776 12.5489 11.8221 12.5713 11.8733C12.751 12.2508 13.0101 12.585 13.3308 12.8533C13.8796 12.3947 14.2396 11.7495 14.3417 11.0416H11.25C11.1395 11.0416 11.0335 10.9977 10.9554 10.9195C10.8772 10.8414 10.8333 10.7354 10.8333 10.6249C10.8333 10.5144 10.8772 10.4084 10.9554 10.3303C11.0335 10.2522 11.1395 10.2083 11.25 10.2083H12.9167V9.37492C12.9167 9.26441 12.9606 9.15843 13.0387 9.08029C13.1168 9.00215 13.2228 8.95825 13.3333 8.95825C13.4438 8.95825 13.5498 9.00215 13.628 9.08029C13.7061 9.15843 13.75 9.26441 13.75 9.37492V10.2083H15.4167C15.5272 10.2083 15.6332 10.2522 15.7113 10.3303C15.7894 10.4084 15.8333 10.5144 15.8333 10.6249C15.8333 10.7354 15.7894 10.8414 15.7113 10.9195C15.6332 10.9977 15.5272 11.0416 15.4167 11.0416Z" fill="#3C67E3"/>
<path d="M6.66605 6.00708L5.9873 7.5H7.19272C7.22272 7.45833 7.2548 7.41666 7.2873 7.375L6.66605 6.00708Z" fill="#3C67E3"/>
<path d="M10.4163 2.5H2.91634C2.36401 2.50066 1.83449 2.72037 1.44393 3.11092C1.05338 3.50148 0.833669 4.031 0.833008 4.58333V9.58333C0.833669 10.1357 1.05338 10.6652 1.44393 11.0557C1.83449 11.4463 2.36401 11.666 2.91634 11.6667H3.33301V13.0388C3.33295 13.1624 3.36958 13.2833 3.43825 13.3861C3.50692 13.489 3.60455 13.5691 3.71879 13.6164C3.83303 13.6638 3.95874 13.6761 4.08002 13.652C4.20129 13.6279 4.31268 13.5683 4.40009 13.4808L6.21384 11.6667H6.66634V9.16667C6.66719 8.88428 6.7093 8.60354 6.79134 8.33333H5.60884L4.96217 9.75583C4.91487 9.85391 4.83105 9.92957 4.72866 9.96662C4.62628 10.0037 4.51345 9.99917 4.41434 9.95408C4.31523 9.90899 4.2377 9.82689 4.19836 9.72536C4.15902 9.62383 4.16099 9.51093 4.20384 9.41083L6.28718 4.8275C6.32032 4.75476 6.37369 4.69308 6.44092 4.64983C6.50815 4.60658 6.5864 4.58359 6.66634 4.58359C6.74628 4.58359 6.82453 4.60658 6.89176 4.64983C6.95899 4.69308 7.01236 4.75476 7.04551 4.8275L7.92759 6.76792C8.41354 6.43024 8.99125 6.2495 9.58301 6.25H12.4997V4.58333C12.499 4.031 12.2793 3.50148 11.8888 3.11092C11.4982 2.72037 10.9687 2.50066 10.4163 2.5Z" fill="#3C67E3"/>
</svg>
