<svg width="22" height="22" viewBox="0 0 22 22" fill="none" xmlns="http://www.w3.org/2000/svg">
<path d="M11 0C7.13432 0 3.91016 3.11395 3.91016 7.08984C3.91016 8.60243 4.36468 9.95122 5.23699 11.2151L10.4574 19.3611C10.7107 19.7571 11.2898 19.7563 11.5426 19.3611L16.7857 11.1874C17.6392 9.98078 18.0898 8.56397 18.0898 7.08984C18.0898 3.1805 14.9093 0 11 0ZM11 10.3125C9.22311 10.3125 7.77734 8.86673 7.77734 7.08984C7.77734 5.31296 9.22311 3.86719 11 3.86719C12.7769 3.86719 14.2227 5.31296 14.2227 7.08984C14.2227 8.86673 12.7769 10.3125 11 10.3125Z" fill="#3C67E3"/>
<path d="M16.0387 14.811L12.7932 19.8851C11.9531 21.1949 10.0422 21.1906 9.20614 19.8863L5.95538 14.8124C3.09521 15.4737 1.33203 16.6851 1.33203 18.1327C1.33203 20.6448 6.31331 21.9999 11 21.9999C15.6867 21.9999 20.668 20.6448 20.668 18.1327C20.668 16.684 18.9023 15.472 16.0387 14.811Z" fill="#3C67E3"/>
</svg>
