<svg width="20" height="20" viewBox="0 0 20 20" fill="none" xmlns="http://www.w3.org/2000/svg">
<g clip-path="url(#clip0_175_1489)">
<path d="M18.5365 8.29927C18.4814 5.42817 18.0814 3.3106 18.0869 3.30864C17.9205 2.98403 17.6287 2.71255 17.2717 2.57388C14.9279 1.66489 12.6232 0.797314 10.3764 0.0570801C10.1467 -0.0187012 9.90448 -0.0187012 9.67519 0.0570801C7.4287 0.795361 5.1244 1.66138 2.78104 2.56919C2.46581 2.69146 2.20136 2.91763 2.02909 3.19263C2.04237 3.19419 1.54745 4.73911 1.46308 8.15122C1.41308 11.5637 1.83808 12.586 1.82401 12.5872C2.05409 13.3372 2.48456 14.1 3.10136 14.8758C3.79081 15.7422 4.72245 16.6372 5.84784 17.5168C7.71073 18.979 9.45409 19.8528 9.52714 19.8836C9.68534 19.961 9.85292 20.0004 10.0256 20C10.1986 20 10.3662 19.9606 10.524 19.8829C10.5975 19.852 12.3428 18.9754 14.2049 17.5137C15.3307 16.6333 16.2623 15.7383 16.9521 14.8723C17.6131 14.0415 18.0599 13.2262 18.276 12.4254C18.2674 12.4243 18.5799 11.1711 18.5365 8.29966V8.29927ZM10.9529 10.5387V12.3579C10.9529 12.8704 10.5377 13.2856 10.0252 13.286C9.51269 13.286 9.09706 12.8708 9.09706 12.3583V10.5645C8.42831 10.2321 7.96815 9.54224 7.96815 8.74497C7.96815 7.6231 8.87753 6.71333 9.9994 6.71333C11.1213 6.71333 12.0307 7.6227 12.031 8.74458C12.031 9.52192 11.5943 10.1973 10.9529 10.5387Z" fill="#3C67E3"/>
</g>
<defs>
<clipPath id="clip0_175_1489">
<rect width="20" height="20" fill="white"/>
</clipPath>
</defs>
</svg>
