<svg width="20" height="20" viewBox="0 0 20 20" fill="none" xmlns="http://www.w3.org/2000/svg">
<path d="M7.49935 3.95842H12.4993C12.5546 3.95842 12.6076 3.93647 12.6467 3.8974C12.6857 3.85833 12.7077 3.80534 12.7077 3.75008V1.04175H7.29102V3.75008C7.29102 3.80534 7.31296 3.85833 7.35203 3.8974C7.3911 3.93647 7.4441 3.95842 7.49935 3.95842Z" fill="#3C67E3"/>
<path d="M15.4163 1.04175H13.958V3.75008C13.9558 4.13618 13.8015 4.50584 13.5285 4.77886C13.2554 5.05188 12.8858 5.20623 12.4997 5.20842H7.49967C7.11358 5.20623 6.74391 5.05188 6.47089 4.77886C6.19788 4.50584 6.04353 4.13618 6.04134 3.75008V1.04175H4.58301C4.08573 1.04175 3.60881 1.23929 3.25718 1.59092C2.90555 1.94255 2.70801 2.41947 2.70801 2.91675V17.0834C2.70801 17.5807 2.90555 18.0576 3.25718 18.4092C3.60881 18.7609 4.08573 18.9584 4.58301 18.9584H15.4163C15.9136 18.9584 16.3905 18.7609 16.7422 18.4092C17.0938 18.0576 17.2913 17.5807 17.2913 17.0834V2.91675C17.2913 2.41947 17.0938 1.94255 16.7422 1.59092C16.3905 1.23929 15.9136 1.04175 15.4163 1.04175ZM13.333 15.6251H6.66634C6.50058 15.6251 6.34161 15.5592 6.2244 15.442C6.10719 15.3248 6.04134 15.1658 6.04134 15.0001C6.04134 14.8343 6.10719 14.6754 6.2244 14.5581C6.34161 14.4409 6.50058 14.3751 6.66634 14.3751H13.333C13.4988 14.3751 13.6577 14.4409 13.775 14.5581C13.8922 14.6754 13.958 14.8343 13.958 15.0001C13.958 15.1658 13.8922 15.3248 13.775 15.442C13.6577 15.5592 13.4988 15.6251 13.333 15.6251ZM13.333 12.2917H6.66634C6.50058 12.2917 6.34161 12.2259 6.2244 12.1087C6.10719 11.9915 6.04134 11.8325 6.04134 11.6667C6.04134 11.501 6.10719 11.342 6.2244 11.2248C6.34161 11.1076 6.50058 11.0417 6.66634 11.0417H13.333C13.4988 11.0417 13.6577 11.1076 13.775 11.2248C13.8922 11.342 13.958 11.501 13.958 11.6667C13.958 11.8325 13.8922 11.9915 13.775 12.1087C13.6577 12.2259 13.4988 12.2917 13.333 12.2917ZM13.333 8.95842H6.66634C6.50058 8.95842 6.34161 8.89257 6.2244 8.77536C6.10719 8.65815 6.04134 8.49918 6.04134 8.33342C6.04134 8.16765 6.10719 8.00868 6.2244 7.89147C6.34161 7.77426 6.50058 7.70842 6.66634 7.70842H13.333C13.4988 7.70842 13.6577 7.77426 13.775 7.89147C13.8922 8.00868 13.958 8.16765 13.958 8.33342C13.958 8.49918 13.8922 8.65815 13.775 8.77536C13.6577 8.89257 13.4988 8.95842 13.333 8.95842Z" fill="#3C67E3"/>
</svg>
