<svg width="20" height="20" viewBox="0 0 20 20" fill="none" xmlns="http://www.w3.org/2000/svg">
<path d="M17.5375 7.13429C17.6946 6.28883 18.0493 4.60389 18.2125 3.75929C18.2205 3.71887 18.2205 3.67726 18.2124 3.63684C18.2044 3.59643 18.1884 3.55799 18.1655 3.52375C18.1426 3.4895 18.1131 3.46011 18.0788 3.43725C18.0445 3.4144 18.0061 3.39852 17.9656 3.39055L15.2688 2.84992C15.2115 2.8394 15.1525 2.84493 15.0982 2.86591C15.0439 2.88689 14.9965 2.9225 14.9612 2.96878C14.926 3.01506 14.9042 3.07021 14.8983 3.12811C14.8925 3.18601 14.9028 3.2444 14.9281 3.2968L15.2875 4.01867L14.6781 4.54367C14.6342 4.5822 14.6018 4.63222 14.5848 4.68812C14.5677 4.74403 14.5666 4.80358 14.5815 4.86009C14.5965 4.91659 14.6269 4.96781 14.6693 5.00797C14.7118 5.04814 14.7646 5.07565 14.8219 5.08742L17.2116 5.56537L16.953 6.86238C13.5885 5.49791 7.09581 5.46985 3.55719 6.67569L3.33639 5.56577L5.72813 5.08742C5.78495 5.07502 5.83725 5.04718 5.87926 5.00697C5.92127 4.96675 5.95137 4.91572 5.96623 4.85949C5.9811 4.80326 5.98015 4.74403 5.9635 4.6883C5.94686 4.63258 5.91515 4.58253 5.87188 4.54367L5.2625 4.01867L5.62187 3.2968C5.64691 3.24438 5.65701 3.18607 5.65105 3.12829C5.64508 3.07051 5.6233 3.01549 5.58808 2.9693C5.55287 2.9231 5.50559 2.88751 5.45146 2.86645C5.39732 2.84539 5.33843 2.83967 5.28125 2.84992L2.58125 3.39055C2.54097 3.39863 2.50268 3.4146 2.4686 3.43754C2.43452 3.46048 2.40531 3.48993 2.38265 3.5242C2.36 3.55848 2.34434 3.59689 2.33659 3.63724C2.32885 3.67759 2.32915 3.71907 2.3375 3.75929C2.50027 4.54246 2.805 6.11536 2.96371 6.89631C1.91071 7.34265 1.24972 7.92168 1.25 8.62492V12.0249C2.81037 12.9915 4.48149 13.2601 7.5781 13.5688C8.23827 12.9599 9.10344 12.6218 10.0015 12.6218C10.8996 12.6218 11.7648 12.9598 12.425 13.5687C15.0781 13.3655 17.05 12.8874 18.125 12.3655C18.3486 12.2627 18.5585 12.1326 18.75 11.978V8.62492C18.75 8.04054 18.2937 7.54367 17.5375 7.13429ZM14.075 6.94054C14.9923 7.07589 15.8898 7.32258 16.7474 7.67516L14.6477 9.10664C14.2064 8.84917 13.7298 8.65776 13.2331 8.53852C13.2358 8.53852 14.0695 6.93564 14.075 6.94054ZM10.5095 6.62804C11.4826 6.6412 12.4541 6.71216 13.4189 6.84056L12.6007 8.3985C11.9107 8.26819 11.2114 8.19296 10.5095 8.1735V6.62804ZM6.975 6.79054C7.941 6.68128 8.91233 6.62599 9.88449 6.62492V8.16287C9.13915 8.16654 8.39529 8.22951 7.65995 8.35117L6.975 6.79054ZM6.32947 6.87521L7.0327 8.47694C6.45094 8.5964 5.89151 8.80632 5.37477 9.09905L3.45375 7.59031C4.38116 7.2406 5.34629 7.00061 6.32947 6.87521ZM4.66398 10.0073C2.73353 9.48232 1.34161 8.75485 2.82581 7.89201L4.89202 9.51461C4.77347 9.6556 4.69474 9.8257 4.66398 10.0073ZM14.7367 10.1469C12.375 10.7166 7.63447 10.7151 5.27188 10.1498C5.26426 9.99385 5.42011 9.83297 5.5545 9.73258C6.71672 8.77116 10.7703 8.5523 12.7042 9.05333C13.3266 9.15982 13.9214 9.38979 14.4536 9.72969C14.5838 9.83339 14.7415 9.98967 14.7367 10.1469ZM15.35 10.0062C15.3122 9.83462 15.237 9.67353 15.1298 9.53441L17.3624 8.01234C18.5352 8.82432 17.1532 9.51063 15.35 10.0062Z" fill="#969696"/>
<path d="M1.875 13.0782C1.66104 12.988 1.45237 12.8858 1.25 12.772V14.3313C1.25 15.6438 3.55625 16.522 6.42188 16.9188V16.2938C6.40331 15.5295 6.63001 14.7794 7.06875 14.1532C5.13125 13.9782 3.1875 13.6282 1.875 13.0782Z" fill="#969696"/>
<path d="M12.9375 14.1532C13.5295 14.9508 13.6207 15.9437 13.5781 16.9188C16.4437 16.5219 18.75 15.6438 18.75 14.3313V12.7219C17.1519 13.6154 15.1493 13.9147 12.9375 14.1532Z" fill="#969696"/>
<path d="M10.0002 13.2468C9.59816 13.2483 9.2006 13.3315 8.83166 13.4913C8.46271 13.6511 8.13007 13.8842 7.85392 14.1764C7.57777 14.4686 7.36386 14.8139 7.22517 15.1913C7.08648 15.5687 7.0259 15.9703 7.0471 16.3718V16.9937C9.00986 17.2108 10.9906 17.2108 12.9534 16.9937V16.3718C12.9735 15.9706 12.9122 15.5694 12.7732 15.1924C12.6341 14.8155 12.4202 14.4706 12.1442 14.1786C11.8683 13.8866 11.536 13.6535 11.1676 13.4934C10.7991 13.3332 10.402 13.2494 10.0002 13.2468Z" fill="#969696"/>
</svg>
