<svg width="16" height="16" viewBox="0 0 16 16" fill="none" xmlns="http://www.w3.org/2000/svg">
<g clip-path="url(#clip0_101_2286)">
<path fill-rule="evenodd" clip-rule="evenodd" d="M15.7497 7.99972C15.7497 10.0697 14.9436 12.0157 13.4798 13.4795C12.0158 14.9436 10.0697 15.7499 8 15.7499C7.74113 15.7499 7.53125 15.54 7.53125 15.2811C7.53125 15.0222 7.74113 14.8124 8 14.8124C9.81925 14.8124 11.5299 14.1036 12.8169 12.8166C15.4729 10.1606 15.4729 5.83887 12.8169 3.18281C10.1606 0.526531 5.8385 0.526562 3.18222 3.18281C3.16184 3.20319 3.14181 3.22388 3.12169 3.24453H3.71353C3.97241 3.24453 4.18228 3.45441 4.18228 3.71328C4.18228 3.97216 3.97241 4.18203 3.71353 4.18203H1.98884C1.72997 4.18203 1.52009 3.97216 1.52009 3.71328V1.98859C1.52009 1.72972 1.72997 1.51984 1.98884 1.51984C2.24772 1.51984 2.45759 1.72972 2.45759 1.98859V2.58281C2.47813 2.56181 2.49853 2.54066 2.51928 2.51991C3.98309 1.05616 5.92934 0.25 7.99959 0.25C10.0698 0.25 12.0161 1.05613 13.4798 2.51991C14.9436 3.98369 15.7498 5.92975 15.7498 7.99972H15.7497ZM3.12609 7.99972C3.12609 5.31222 5.31253 3.12581 8 3.12581C10.6875 3.12581 12.8739 5.31222 12.8739 7.99972C12.8739 10.6872 10.6875 12.8736 8 12.8736C5.3125 12.8736 3.12609 10.6872 3.12609 7.99972ZM7.53125 7.99972C7.53125 8.16716 7.62056 8.32191 7.76556 8.40562L9.35294 9.32244C9.42678 9.36509 9.50738 9.38534 9.58694 9.38534C9.74891 9.38534 9.90647 9.30128 9.99328 9.15097C10.1228 8.92678 10.046 8.64009 9.82181 8.51062L8.46875 7.72916V5.52653C8.46875 5.26766 8.25887 5.05778 8 5.05778C7.74113 5.05778 7.53125 5.26766 7.53125 5.52653V7.99975V7.99972ZM1.18719 7.99972C1.18719 7.74194 0.97725 7.53113 0.718594 7.53113C0.459938 7.53113 0.25 7.74194 0.25 7.99972C0.25 8.2575 0.460813 8.46831 0.718594 8.46831C0.976375 8.46831 1.18719 8.2575 1.18719 7.99972ZM6.23634 14.5796C5.98653 14.5131 5.72966 14.6611 5.66234 14.9117C5.59591 15.1616 5.74384 15.4184 5.99363 15.4857C6.24431 15.5522 6.50119 15.4042 6.56763 15.1536C6.63494 14.9037 6.48703 14.6469 6.23634 14.5796ZM4.59403 13.8993C4.36903 13.7699 4.08291 13.847 3.95359 14.0711C3.82425 14.2952 3.90044 14.5822 4.12456 14.7115C4.34869 14.8408 4.63569 14.7638 4.765 14.5397C4.89434 14.3156 4.81816 14.0286 4.59403 13.8993ZM2.51947 12.8168C2.337 13.0002 2.337 13.2969 2.51947 13.4794C2.70284 13.6628 2.99959 13.6628 3.18294 13.4794C3.36541 13.2969 3.36541 13.0002 3.18294 12.8168C2.99956 12.6334 2.70281 12.6334 2.51947 12.8168ZM1.46003 11.2347C1.23591 11.364 1.15884 11.6502 1.28819 11.8743C1.4175 12.0984 1.70453 12.1755 1.92863 12.0461C2.15275 11.9168 2.22981 11.6298 2.10047 11.4057C1.97116 11.1816 1.68413 11.1045 1.46003 11.2347ZM1.41928 9.7625C1.35284 9.51269 1.09597 9.36478 0.845281 9.43122C0.595469 9.49853 0.446656 9.75544 0.513969 10.0052C0.581281 10.2559 0.838188 10.4038 1.08797 10.3374C1.33778 10.2701 1.48662 10.0132 1.41928 9.7625ZM0.845281 6.56825C1.09597 6.63469 1.35284 6.48675 1.41928 6.23697C1.48659 5.98628 1.33778 5.72941 1.088 5.66206C0.838188 5.59562 0.581313 5.74356 0.514 5.99425C0.446687 6.24406 0.5955 6.50094 0.845313 6.56825H0.845281Z" fill="#3C67E3"/>
</g>
<defs>
<clipPath id="clip0_101_2286">
<rect width="16" height="16" fill="white"/>
</clipPath>
</defs>
</svg>
