<svg width="20" height="20" viewBox="0 0 20 20" fill="none" xmlns="http://www.w3.org/2000/svg">
<g clip-path="url(#clip0_175_1477)">
<path d="M10.9438 16.0187C10.9438 14.6633 11.4715 13.3887 12.4301 12.4301C13.3887 11.4715 14.6629 10.9438 16.0187 10.9438C17.1316 10.9438 18.1898 11.3 19.0637 11.9578C19.1121 11.25 19.1422 10.4582 19.1434 9.57187C19.141 7.34258 18.9539 5.71016 18.7543 4.51055C18.4051 2.53398 16.6098 0.738672 14.6332 0.389453C13.4336 0.189453 11.8012 0.00234375 9.57148 0C7.34219 0.00234375 5.70937 0.189453 4.50977 0.389062C2.53359 0.738281 0.738281 2.53359 0.389062 4.51016C0.189453 5.70977 0.00273437 7.34219 0 9.57148C0.00273437 11.8008 0.189453 13.4336 0.389062 14.6332C0.738281 16.6098 2.53359 18.4051 4.51016 18.7543C5.70977 18.9539 7.34219 19.1406 9.57187 19.1434C10.4582 19.1422 11.25 19.1121 11.9578 19.0637C11.3 18.1898 10.9438 17.132 10.9438 16.0187ZM4.84219 4.62578H14.3012C14.9129 4.62578 15.409 5.12187 15.409 5.73359C15.409 6.34531 14.9129 6.84141 14.3012 6.84141H4.84219C4.23047 6.84141 3.73438 6.34531 3.73438 5.73359C3.73438 5.12187 4.23047 4.62578 4.84219 4.62578ZM4.84219 11.4676C4.23047 11.4676 3.73438 10.9715 3.73438 10.3598C3.73438 9.74805 4.23047 9.25195 4.84219 9.25195H10.3949C11.0066 9.25195 11.5027 9.74805 11.5027 10.3598C11.5027 10.9715 11.0066 11.4676 10.3949 11.4676H4.84219Z" fill="#3C67E3"/>
<path d="M16.0184 12.0376C13.8195 12.0376 12.0371 13.82 12.0371 16.0188C12.0371 18.2177 13.8195 20.0001 16.0184 20.0001C18.2172 20.0001 19.9996 18.2177 19.9996 16.0188C19.9996 13.82 18.2172 12.0376 16.0184 12.0376ZM16.7605 17.9942C16.7605 18.404 16.4281 18.7364 16.0184 18.7364C15.6086 18.7364 15.2762 18.404 15.2762 17.9942V16.036C15.2762 15.6263 15.6086 15.2938 16.0184 15.2938C16.4281 15.2938 16.7605 15.6263 16.7605 16.036V17.9942ZM16.7301 14.4474C16.7027 14.6021 16.5621 14.7427 16.4074 14.77C16.3137 14.7856 16.1855 14.8001 16.0109 14.8005C15.8363 14.8005 15.7086 14.7856 15.6145 14.77C15.4598 14.7427 15.3191 14.6021 15.2918 14.4474C15.2762 14.3536 15.2617 14.2255 15.2613 14.0509C15.2613 13.8763 15.2762 13.7485 15.2918 13.6544C15.3191 13.4997 15.4598 13.3591 15.6145 13.3317C15.7082 13.3161 15.8363 13.3017 16.0109 13.3013C16.1855 13.3013 16.3133 13.3161 16.4074 13.3317C16.5621 13.3591 16.7027 13.4997 16.7301 13.6544C16.7457 13.7481 16.7602 13.8763 16.7605 14.0509C16.7605 14.2255 16.7457 14.3532 16.7301 14.4474Z" fill="#3C67E3"/>
</g>
<defs>
<clipPath id="clip0_175_1477">
<rect width="20" height="20" fill="white"/>
</clipPath>
</defs>
</svg>
