<svg width="25" height="24" viewBox="0 0 25 24" fill="none" xmlns="http://www.w3.org/2000/svg">
<path d="M19.4032 3.14444H17.2319V2.1731C17.2319 1.85884 16.8891 1.71601 16.5748 1.71601H14.8893C14.4893 0.573235 13.4894 0.00184981 12.3466 0.00184981C11.2164 -0.0406391 10.1884 0.652362 9.80395 1.71601H8.14693C7.83267 1.71601 7.51841 1.85884 7.51841 2.1731V3.14444H5.3471C4.0604 3.15817 3.00775 4.1732 2.94727 5.45853V21.8287C2.94727 23.0857 4.09004 23.9999 5.3471 23.9999H19.4032C20.6602 23.9999 21.803 23.0857 21.803 21.8287V5.45858C21.7425 4.1732 20.6899 3.15817 19.4032 3.14444ZM8.66112 2.85878H10.2324C10.5067 2.82531 10.7271 2.61664 10.7753 2.34454C10.9445 1.60773 11.5909 1.07884 12.3466 1.05893C13.0953 1.08163 13.732 1.61216 13.8893 2.34454C13.9406 2.62605 14.1754 2.8374 14.4607 2.85878H16.0892V5.14432H8.66112V2.85878ZM20.6602 21.8287C20.6602 22.4573 20.0317 22.8572 19.4032 22.8572H5.3471C4.71857 22.8572 4.09004 22.4573 4.09004 21.8287V5.45858C4.14833 4.80435 4.69035 4.29924 5.3471 4.28727H7.51835V5.74431C7.54854 6.06442 7.82578 6.30388 8.14688 6.28715H16.5748C16.9018 6.30503 17.1877 6.06885 17.2319 5.74431V4.28721H19.4031C20.0598 4.29924 20.6019 4.8043 20.6602 5.45853V21.8287H20.6602Z" fill="#484C52"/>
<path d="M10.1753 12.7724C9.96097 12.5465 9.60521 12.5337 9.37532 12.7438L7.54687 14.4865L6.77551 13.6866C6.56121 13.4607 6.20544 13.448 5.97555 13.658C5.75424 13.8899 5.75424 14.2547 5.97555 14.4865L7.14686 15.6864C7.24825 15.8 7.39469 15.8627 7.54682 15.8579C7.69752 15.8557 7.84129 15.7941 7.94677 15.6864L10.1752 13.5723C10.3961 13.3697 10.4109 13.0263 10.2081 12.8054C10.1978 12.7939 10.1868 12.7829 10.1753 12.7724Z" fill="#484C52"/>
<path d="M18.3747 14.0007H11.8038C11.4882 14.0007 11.2324 14.2565 11.2324 14.5721C11.2324 14.8877 11.4882 15.1435 11.8038 15.1435H18.3747C18.6903 15.1435 18.9461 14.8877 18.9461 14.5721C18.9461 14.2565 18.6903 14.0007 18.3747 14.0007Z" fill="#484C52"/>
<path d="M10.1753 8.20133C9.96097 7.97543 9.60521 7.96269 9.37532 8.17278L7.54687 9.91549L6.77551 9.11552C6.56121 8.88963 6.20544 8.87689 5.97555 9.08698C5.75424 9.31884 5.75424 9.68363 5.97555 9.91549L7.14686 11.1154C7.24825 11.2289 7.39469 11.2917 7.54682 11.2868C7.69752 11.2847 7.84129 11.2231 7.94677 11.1154L10.1752 9.00129C10.3961 8.79863 10.4109 8.45522 10.2081 8.23436C10.1978 8.22282 10.1868 8.21183 10.1753 8.20133Z" fill="#484C52"/>
<path d="M18.3747 9.42969H11.8038C11.4882 9.42969 11.2324 9.6855 11.2324 10.0011C11.2324 10.3167 11.4882 10.5725 11.8038 10.5725H18.3747C18.6903 10.5725 18.9461 10.3167 18.9461 10.0011C18.9461 9.6855 18.6903 9.42969 18.3747 9.42969Z" fill="#484C52"/>
<path d="M10.1753 17.3434C9.96097 17.1175 9.60521 17.1048 9.37532 17.3149L7.54687 19.0576L6.77551 18.2576C6.56121 18.0317 6.20544 18.019 5.97555 18.229C5.75424 18.4609 5.75424 18.8257 5.97555 19.0576L7.14686 20.2575C7.24825 20.371 7.39469 20.4338 7.54682 20.4289C7.69752 20.4268 7.84129 20.3651 7.94677 20.2575L10.1752 18.1434C10.3961 17.9407 10.4109 17.5973 10.2081 17.3764C10.1978 17.3649 10.1868 17.354 10.1753 17.3434Z" fill="#484C52"/>
<path d="M18.3747 18.5718H11.8038C11.4882 18.5718 11.2324 18.8276 11.2324 19.1432C11.2324 19.4587 11.4882 19.7145 11.8038 19.7145H18.3747C18.6903 19.7145 18.9461 19.4587 18.9461 19.1432C18.9461 18.8276 18.6903 18.5718 18.3747 18.5718Z" fill="#484C52"/>
</svg>
