<svg width="19" height="24" viewBox="0 0 19 24" fill="none" xmlns="http://www.w3.org/2000/svg">
<path d="M13.38 1.81873H11.624C11.4049 1.81195 11.2166 1.66129 11.1619 1.44906C10.9955 0.584547 10.2241 -0.0299481 9.34426 0.00112748C8.45911 -0.0143808 7.69153 0.61008 7.52666 1.4799C7.4697 1.68629 7.27847 1.82651 7.06454 1.81879H5.37012V4.89952H13.38V1.81873Z" fill="#3C67E3"/>
<path d="M18.309 22.5826V4.93009C18.3109 4.23251 17.7468 3.66549 17.0493 3.6636C17.0173 3.66354 16.9853 3.66466 16.9534 3.66696H14.304V5.23814C14.304 5.48462 14.15 5.8235 13.9035 5.8235H4.81538C4.56889 5.8235 4.44571 5.48462 4.44571 5.23814V3.66702H1.79626C1.10057 3.61595 0.495155 4.13858 0.444148 4.83433C0.44179 4.86623 0.440669 4.89819 0.440787 4.93015V22.5827C0.423569 23.3482 1.03016 23.9826 1.79561 23.9998C1.79585 23.9998 1.79609 23.9998 1.79632 23.9998H16.9535C17.719 23.983 18.3258 23.3488 18.309 22.5834C18.309 22.5831 18.309 22.5829 18.309 22.5826ZM6.87946 18.5161L4.47649 20.765C4.39966 20.857 4.28803 20.9128 4.16845 20.9191C4.03972 20.914 3.91807 20.8587 3.82956 20.765L2.56649 19.4711C2.39861 19.2831 2.41235 18.9953 2.59727 18.8242C2.77694 18.6481 3.06453 18.6481 3.2442 18.8242L4.16839 19.81L6.26331 17.8383C6.47335 17.6934 6.76117 17.7461 6.90611 17.9562C7.0244 18.1275 7.01343 18.3568 6.87946 18.5161ZM6.87946 13.5869L4.47649 15.8359C4.39966 15.9278 4.28803 15.9836 4.16845 15.9899C4.03972 15.9848 3.91807 15.9295 3.82956 15.8359L2.56649 14.542C2.39861 14.354 2.41235 14.0662 2.59727 13.895C2.77694 13.7189 3.06453 13.7189 3.2442 13.895L4.16839 14.8808L6.26331 12.9092C6.47335 12.7642 6.76117 12.8169 6.90611 13.027C7.0244 13.1983 7.01343 13.4276 6.87946 13.5869ZM6.87946 8.65775L4.47649 10.9067C4.39966 10.9986 4.28803 11.0544 4.16845 11.0607C4.03972 11.0556 3.91807 11.0003 3.82956 10.9067L2.56649 9.61278C2.39861 9.4248 2.41235 9.13698 2.59727 8.96586C2.77694 8.78972 3.06453 8.78972 3.2442 8.96586L4.16839 9.95167L6.26331 7.97999C6.47335 7.83505 6.76117 7.88776 6.90611 8.0978C7.0244 8.26916 7.01343 8.49843 6.87946 8.65775ZM15.8444 20.3029H8.75868C8.50347 20.3029 8.29655 20.096 8.29655 19.8408C8.29655 19.5856 8.50347 19.3787 8.75868 19.3787H15.8443C16.0995 19.3787 16.3065 19.5856 16.3065 19.8408C16.3065 20.096 16.0996 20.3029 15.8444 20.3029ZM15.8444 15.3737H8.75868C8.50347 15.3737 8.29655 15.1668 8.29655 14.9116C8.29655 14.6564 8.50347 14.4495 8.75868 14.4495H15.8443C16.0995 14.4495 16.3065 14.6564 16.3065 14.9116C16.3065 15.1668 16.0996 15.3737 15.8444 15.3737ZM15.8444 10.4446H8.75868C8.50347 10.4446 8.29655 10.2377 8.29655 9.98245C8.29655 9.72724 8.50347 9.52032 8.75868 9.52032H15.8443C16.0995 9.52032 16.3065 9.72724 16.3065 9.98245C16.3065 10.2377 16.0996 10.4446 15.8444 10.4446Z" fill="#3C67E3"/>
</svg>
