<svg xmlns="http://www.w3.org/2000/svg" version="1.1" xmlns:xlink="http://www.w3.org/1999/xlink"
    width="512" height="512" x="0" y="0" viewBox="0 0 24 24"
    style="enable-background:new 0 0 512 512" xml:space="preserve" fill-rule="evenodd" class=""><g><path d="M20.75 3v19a.75.75 0 0 1-1.173.619l-2.495-1.703-2.359 1.693a.748.748 0 0 1-.931-.045L12 20.997l-1.792 1.567a.748.748 0 0 1-.931.045l-2.359-1.693-2.495 1.703A.75.75 0 0 1 3.25 22V3c0-.966.783-1.75 1.75-1.75h14c.967 0 1.75.784 1.75 1.75zM8 10.75h8a.75.75 0 0 0 0-1.5H8a.75.75 0 0 0 0 1.5zm0-4h8a.75.75 0 0 0 0-1.5H8a.75.75 0 0 0 0 1.5zm0 8h4a.75.75 0 0 0 0-1.5H8a.75.75 0 0 0 0 1.5z" fill="#4C9E48" opacity="1"  class=""></path></g></svg>