<svg width="16" height="16" viewBox="0 0 16 16" fill="none" xmlns="http://www.w3.org/2000/svg">
<g clip-path="url(#clip0_99_1612)">
<path d="M14.3351 13.1942L13.6207 4.19081C13.5764 3.61071 13.0856 3.15649 12.5039 3.15649H11.0925V5.24765C11.0925 5.50662 10.8829 5.71624 10.6239 5.71624C10.3653 5.71624 10.1554 5.50662 10.1554 5.24765V3.15649H5.84438V5.24765C5.84438 5.50662 5.63445 5.71624 5.37579 5.71624C5.11682 5.71624 4.9072 5.50662 4.9072 5.24765V3.15649H3.49582C2.91416 3.15649 2.42338 3.61071 2.37904 4.18956L1.66429 13.1955C1.60901 13.9168 1.85923 14.6347 2.3506 15.1651C2.84201 15.6955 3.53863 16.0001 4.26182 16.0001H11.7379C12.4611 16.0001 13.1578 15.6955 13.6492 15.1651C14.1405 14.6346 14.3908 13.9167 14.3351 13.1942ZM10.111 8.60924L7.68748 11.0328C7.59595 11.1243 7.47598 11.1702 7.35604 11.1702C7.23607 11.1702 7.11613 11.1243 7.0246 11.0328L5.88876 9.89693C5.7057 9.71387 5.7057 9.4174 5.88876 9.23434C6.07182 9.05128 6.3686 9.05128 6.55135 9.23434L7.35607 10.0387L9.44845 7.94637C9.6312 7.76362 9.92798 7.76362 10.111 7.94637C10.2941 8.12943 10.2941 8.42618 10.111 8.60924Z" fill="#3C67E3"/>
<path d="M7.99988 0C6.29454 0 4.90723 1.38762 4.90723 3.09297V3.15637H5.84441V3.09297C5.84441 1.90431 6.81126 0.937156 7.99991 0.937156C9.18857 0.937156 10.1554 1.90431 10.1554 3.09297V3.15637H11.0926V3.09297C11.0925 1.38762 9.70523 0 7.99988 0Z" fill="#3C67E3"/>
</g>
<defs>
<clipPath id="clip0_99_1612">
<rect width="16" height="16" fill="white"/>
</clipPath>
</defs>
</svg>
