<svg width="25" height="24" viewBox="0 0 25 24" fill="none" xmlns="http://www.w3.org/2000/svg">
<path d="M12.875 1C9.67645 1 7.07422 3.60223 7.07422 6.80078C7.07422 9.99933 9.67645 12.6016 12.875 12.6016C16.0736 12.6016 18.6758 9.99933 18.6758 6.80078C18.6758 3.60223 16.0736 1 12.875 1Z" fill="#3C67E3"/>
<path d="M20.0923 16.3912C18.5042 14.7787 16.3988 13.8906 14.1641 13.8906H11.5859C9.35122 13.8906 7.24584 14.7787 5.65771 16.3912C4.07736 17.9958 3.20703 20.1139 3.20703 22.3555C3.20703 22.7114 3.49561 23 3.85156 23H21.8984C22.2544 23 22.543 22.7114 22.543 22.3555C22.543 20.1139 21.6726 17.9958 20.0923 16.3912Z" fill="#3C67E3"/>
</svg>
